<svg xmlns="http://www.w3.org/2000/svg" xmlns:xlink="http://www.w3.org/1999/xlink" width="500" zoomAndPan="magnify" viewBox="0 0 375 149.999998" height="200" preserveAspectRatio="xMidYMid meet" version="1.0"><defs><g/><clipPath id="d5dd266096"><path d="M 73.347656 61.414062 L 125 61.414062 L 125 108.984375 L 73.347656 108.984375 Z M 73.347656 61.414062 " clip-rule="nonzero"/></clipPath><clipPath id="64bbc2ac6f"><path d="M 74.722656 108.898438 L 79.074219 103.164062 C 81.726562 99.710938 84.988281 96.941406 88.988281 95.238281 C 93.847656 93.171875 98.875 91.488281 103.710938 89.371094 C 106.855469 87.996094 110.382812 86.84375 110.488281 82.269531 C 110.542969 79.796875 111.367188 77.34375 111.644531 74.863281 C 111.933594 72.285156 113.25 70.753906 115.664062 69.957031 C 117.890625 69.214844 120.128906 68.449219 122.277344 67.511719 C 124.667969 66.464844 125.019531 63.660156 122.804688 62.335938 C 121.578125 61.605469 119.800781 61.441406 118.339844 61.601562 C 116.800781 61.773438 115.359375 62.6875 113.84375 63.1875 C 103.800781 66.480469 105.6875 65.246094 104.320312 74.128906 C 103.441406 79.84375 101.511719 83.039062 95.796875 84.289062 C 92.417969 85.023438 89.355469 87.15625 85.988281 88.066406 C 80.09375 89.65625 77.074219 94.328125 73.640625 98.628906 C 73.414062 98.914062 73.382812 99.453125 73.433594 99.847656 L 74.742188 108.902344 " clip-rule="nonzero"/></clipPath><clipPath id="7f331543ac"><path d="M 38 51.21875 L 106 51.21875 L 106 82.554688 L 38 82.554688 Z M 38 51.21875 " clip-rule="nonzero"/></clipPath><clipPath id="f8d73389f3"><path d="M 69.207031 51.453125 C 67.953125 51.453125 66.683594 51.703125 65.398438 52.183594 C 59.96875 54.21875 55.8125 57.628906 53.480469 63.082031 C 51.261719 68.269531 50.976562 68.871094 46.4375 68.871094 C 45.847656 68.871094 45.179688 68.859375 44.429688 68.847656 C 44.378906 68.847656 44.328125 68.847656 44.277344 68.847656 C 42.589844 68.847656 41.253906 69.320312 40.585938 71.046875 L 38.605469 76.222656 C 38.34375 77.027344 38.207031 77.742188 38.203125 78.390625 L 38.203125 78.457031 C 38.210938 80.097656 39.085938 81.289062 40.945312 82.277344 L 42.148438 79.371094 C 43.964844 74.945312 43.832031 74.074219 46.296875 74.074219 C 47.125 74.074219 48.25 74.171875 49.839844 74.265625 C 50.132812 74.28125 50.417969 74.292969 50.6875 74.292969 C 53.570312 74.292969 55.363281 73.285156 56.363281 70.335938 C 56.839844 68.929688 57.714844 67.65625 58.402344 66.324219 C 59.921875 63.386719 62.171875 61.234375 65.15625 59.78125 C 66.59375 59.085938 67.988281 58.691406 69.390625 58.691406 C 70.675781 58.691406 71.976562 59.015625 73.328125 59.734375 C 77.121094 61.722656 81.050781 63.457031 84.988281 65.15625 C 85.8125 65.507812 86.832031 65.828125 87.742188 65.828125 C 88.042969 65.828125 88.332031 65.792969 88.59375 65.710938 C 93.660156 64.175781 98.675781 62.472656 103.644531 60.640625 C 105.976562 59.78125 106.203125 57.214844 104.316406 55.582031 C 103.40625 54.796875 102.453125 54.511719 101.46875 54.511719 C 100.609375 54.511719 99.730469 54.730469 98.839844 55.011719 C 95.796875 55.988281 92.808594 57.199219 89.703125 57.863281 C 89.015625 58.007812 88.277344 58.085938 87.53125 58.085938 C 86.367188 58.085938 85.191406 57.902344 84.179688 57.515625 C 80.65625 56.164062 77.296875 54.375 73.929688 52.652344 C 72.359375 51.847656 70.789062 51.453125 69.199219 51.453125 Z M 69.207031 51.453125 " clip-rule="nonzero"/></clipPath><clipPath id="53ee615107"><path d="M 47 38 L 110 38 L 110 57.636719 L 47 57.636719 Z M 47 38 " clip-rule="nonzero"/></clipPath><clipPath id="2248277729"><path d="M 87.832031 52.59375 L 93.144531 51 C 97.894531 49.558594 102.683594 48.242188 107.359375 46.589844 C 108.429688 46.210938 109.96875 44.425781 109.765625 43.75 C 109.40625 42.566406 108.007812 41.464844 106.777344 40.851562 C 105.945312 40.4375 104.617188 40.75 103.589844 41.03125 C 100.015625 42 96.429688 42.941406 92.945312 44.183594 C 89.570312 45.390625 86.472656 45.515625 83.316406 43.535156 C 81.476562 42.378906 79.277344 41.789062 77.441406 40.628906 C 73.515625 38.148438 69.558594 37.675781 65.214844 39.457031 C 63.289062 40.25 61.144531 40.515625 59.113281 41.050781 C 53.53125 42.53125 49.5 45.832031 47.570312 51.34375 C 47.132812 52.605469 47.148438 54.167969 47.429688 55.492188 C 47.597656 56.277344 48.636719 57.316406 49.386719 57.402344 C 50.027344 57.480469 51.160156 56.511719 51.472656 55.761719 C 53.433594 51.074219 56.992188 48.484375 61.796875 47.335938 C 63.761719 46.867188 65.679688 46.023438 67.660156 45.851562 C 69.648438 45.679688 71.859375 45.695312 73.683594 46.390625 C 77.523438 47.855469 81.160156 49.84375 84.902344 51.570312 L 87.828125 52.59375 " clip-rule="nonzero"/></clipPath><clipPath id="78ea382370"><path d="M 61 75.003906 L 87 75.003906 L 87 122.953125 L 61 122.953125 Z M 61 75.003906 " clip-rule="nonzero"/></clipPath><clipPath id="388f848dd9"><path d="M 81.246094 75.074219 C 80.855469 75.074219 80.480469 75.125 80.152344 75.230469 C 74.828125 76.96875 70.421875 80.109375 67.628906 85.171875 L 65.699219 88.101562 C 63.09375 92.507812 60.304688 96.816406 62.140625 102.414062 C 62.917969 104.789062 63.039062 107.378906 63.546875 109.84375 C 63.976562 111.921875 63.839844 113.773438 62.484375 115.570312 C 61.765625 116.519531 61.507812 117.816406 61.320312 118.273438 C 61.320312 121.148438 62.308594 122.683594 63.65625 122.6875 L 63.667969 122.6875 C 63.96875 122.6875 64.289062 122.609375 64.621094 122.457031 C 67.304688 121.191406 70.484375 114.996094 69.949219 112.015625 C 69.304688 108.457031 68.507812 104.921875 68.03125 101.339844 C 67.820312 99.746094 67.71875 97.796875 68.4375 96.480469 C 70.796875 92.144531 72.640625 87.292969 77.589844 84.96875 L 84.25 81.726562 C 86.921875 80.441406 87.421875 77.878906 84.992188 76.242188 C 84.007812 75.582031 82.519531 75.074219 81.253906 75.074219 Z M 81.246094 75.074219 " clip-rule="nonzero"/></clipPath><clipPath id="10ae999fb6"><path d="M 49.238281 72 L 65.4375 72 L 65.4375 103 L 49.238281 103 Z M 49.238281 72 " clip-rule="nonzero"/></clipPath><clipPath id="ee3f78aba9"><path d="M 65.238281 76.167969 C 64.46875 75.042969 63.847656 73.074219 62.652344 72.613281 C 60.640625 71.847656 60.210938 74.171875 59.574219 75.507812 L 54.738281 86.308594 C 53.050781 90.042969 51.105469 93.675781 49.746094 97.523438 C 49.320312 98.71875 49.992188 101.121094 50.976562 101.816406 C 52.628906 102.996094 53.296875 100.921875 53.902344 99.722656 C 55.183594 97.175781 56.25 94.515625 57.582031 92 L 63.804688 80.785156 C 64.449219 79.550781 64.664062 78.09375 65.242188 76.167969 " clip-rule="nonzero"/></clipPath><clipPath id="a6ed850e43"><path d="M 81.257812 94.261719 L 113.65625 94.261719 L 113.65625 105.964844 L 81.257812 105.964844 Z M 81.257812 94.261719 " clip-rule="nonzero"/></clipPath><clipPath id="dac1cd1fc4"><path d="M 81.492188 105.90625 C 83.1875 105.222656 84.261719 104.820312 85.304688 104.371094 C 89.160156 102.707031 92.957031 100.878906 96.894531 99.441406 C 98.191406 98.972656 100.070312 99.0625 101.316406 99.664062 C 105.464844 101.667969 111.46875 99.523438 113.488281 94.628906 C 111.902344 95.265625 110.5625 95.648438 109.378906 96.316406 C 106.894531 97.710938 104.742188 97.421875 102.316406 95.929688 C 101.074219 95.167969 99.070312 94.984375 97.617188 95.351562 C 94.953125 96.023438 92.320312 97.0625 89.898438 98.371094 C 86.777344 100.058594 83.804688 102.085938 81.492188 105.90625 " clip-rule="nonzero"/></clipPath><clipPath id="035bcb0b68"><path d="M 70 101.054688 L 100.847656 101.054688 L 100.847656 122 L 70 122 Z M 70 101.054688 " clip-rule="nonzero"/></clipPath><clipPath id="aaef53da4d"><path d="M 100.539062 102.929688 L 100.632812 102.347656 C 99.386719 101.898438 97.933594 101.292969 96.8125 101.667969 C 93.320312 102.832031 89.996094 104.339844 87.300781 107.109375 C 83.457031 111.0625 79.675781 115.117188 74.234375 117.140625 C 72.707031 117.707031 71.617188 119.453125 70.328125 120.65625 L 71.210938 121.855469 C 74.976562 119.8125 79.34375 118.414062 82.378906 115.59375 C 87.710938 110.640625 92.84375 105.675781 99.949219 103.378906 L 100.339844 103.082031 " clip-rule="nonzero"/></clipPath><clipPath id="3220f20775"><path d="M 116 72.738281 L 129.855469 72.738281 L 129.855469 82.179688 L 116 82.179688 Z M 116 72.738281 " clip-rule="nonzero"/></clipPath><clipPath id="462d8b6ba6"><path d="M 125.375 72.921875 C 124.527344 72.921875 123.65625 73.167969 122.78125 73.628906 C 121.605469 74.25 120.46875 75.054688 119.210938 75.402344 C 117.34375 75.917969 116.21875 77.101562 116.878906 78.789062 C 117.390625 80.074219 118.925781 80.953125 120.097656 82.09375 C 122.953125 80.890625 125.222656 79.921875 127.496094 78.976562 C 128.851562 78.414062 129.574219 77.425781 129.589844 76.378906 L 129.589844 76.304688 C 129.574219 75.480469 129.125 74.625 128.207031 73.933594 C 127.296875 73.246094 126.34375 72.921875 125.375 72.921875 Z M 125.375 72.921875 " clip-rule="nonzero"/></clipPath><clipPath id="96be63dc4f"><path d="M 43.585938 78.402344 L 51.496094 78.402344 L 51.496094 91.617188 L 43.585938 91.617188 Z M 43.585938 78.402344 " clip-rule="nonzero"/></clipPath><clipPath id="7299462c5a"><path d="M 43.589844 88.507812 C 44.441406 89.519531 45.1875 90.519531 46.09375 91.34375 C 46.246094 91.480469 47.382812 90.96875 47.585938 90.527344 C 48.898438 87.730469 50.261719 84.929688 51.191406 81.992188 C 51.453125 81.164062 50.578125 79.578125 49.757812 78.957031 C 49.316406 78.617188 47.34375 79.320312 46.996094 80.015625 C 45.707031 82.59375 44.800781 85.375 43.589844 88.503906 " clip-rule="nonzero"/></clipPath><clipPath id="9a54c62875"><path d="M 105.746094 84.445312 L 124.582031 84.445312 L 124.582031 94.636719 L 105.746094 94.636719 Z M 105.746094 84.445312 " clip-rule="nonzero"/></clipPath><clipPath id="aefdd47618"><path d="M 124.210938 84.644531 C 123.324219 84.722656 122.980469 84.667969 122.707031 84.78125 L 108.652344 90.769531 C 107.285156 91.386719 105.816406 92.257812 105.964844 94.234375 L 106.597656 94.566406 C 112.175781 92.078125 117.601562 89.679688 122.960938 87.132812 C 123.53125 86.863281 123.691406 85.726562 124.207031 84.644531 " clip-rule="nonzero"/></clipPath><clipPath id="693b0fa973"><path d="M 90 70.097656 L 98.964844 70.097656 L 98.964844 77.269531 L 90 77.269531 Z M 90 70.097656 " clip-rule="nonzero"/></clipPath><clipPath id="e5d4a3c25c"><path d="M 94.988281 77.1875 C 97.433594 77.183594 98.828125 76.101562 98.796875 74.234375 C 98.769531 72.261719 96.605469 70.480469 94.199219 70.449219 C 91.980469 70.425781 90.226562 71.917969 90.261719 73.800781 C 90.304688 75.9375 92.058594 77.191406 94.992188 77.1875 " clip-rule="nonzero"/></clipPath><clipPath id="becc52be8f"><path d="M 67 64.054688 L 75.984375 64.054688 L 75.984375 71.605469 L 67 71.605469 Z M 67 64.054688 " clip-rule="nonzero"/></clipPath><clipPath id="5c1729243c"><path d="M 71.640625 71.222656 C 74.113281 71.25 75.675781 70.042969 75.679688 68.089844 C 75.6875 66.066406 73.605469 64.300781 71.160156 64.261719 C 68.785156 64.226562 67.273438 65.527344 67.304688 67.601562 C 67.335938 69.679688 69.148438 71.195312 71.640625 71.222656 " clip-rule="nonzero"/></clipPath><clipPath id="2ed2fa25b0"><path d="M 109.136719 50.464844 L 117 50.464844 L 117 57.261719 L 109.136719 57.261719 Z M 109.136719 50.464844 " clip-rule="nonzero"/></clipPath><clipPath id="30dd89f5b7"><path d="M 112.8125 50.769531 C 110.675781 50.730469 109.25 51.957031 109.285156 53.789062 C 109.320312 55.613281 111.164062 57.195312 113.300781 57.140625 C 115.148438 57.09375 116.648438 56.421875 116.863281 54.34375 C 117.0625 52.492188 115.066406 50.804688 112.808594 50.769531 " clip-rule="nonzero"/></clipPath><clipPath id="329b2ebd50"><path d="M 84 33.476562 L 91.804688 33.476562 L 91.804688 40 L 84 40 Z M 84 33.476562 " clip-rule="nonzero"/></clipPath><clipPath id="1fddd16ed8"><path d="M 87.277344 33.789062 C 85.640625 33.910156 84.214844 34.601562 84.101562 36.6875 C 84.007812 38.445312 85.707031 39.863281 87.847656 39.890625 C 89.683594 39.917969 91.21875 39.414062 91.390625 37.246094 C 91.527344 35.5 89.597656 33.84375 87.277344 33.789062 " clip-rule="nonzero"/></clipPath><clipPath id="33035c49e7"><path d="M 94.066406 31 L 101.601562 31 L 101.601562 37.25 L 94.066406 37.25 Z M 94.066406 31 " clip-rule="nonzero"/></clipPath><clipPath id="6c5321c665"><path d="M 97.621094 31.09375 C 97.585938 31.09375 97.550781 31.09375 97.511719 31.097656 C 95.722656 31.179688 94.316406 32.058594 94.390625 33.964844 C 94.472656 36.035156 96.03125 36.894531 97.648438 37.101562 C 97.695312 37.101562 97.742188 37.101562 97.789062 37.101562 C 99.902344 37.101562 101.28125 36.03125 101.371094 34.535156 C 101.476562 32.847656 99.65625 31.121094 97.691406 31.097656 Z M 97.621094 31.09375 " clip-rule="nonzero"/></clipPath><clipPath id="0a23048aea"><path d="M 102 99.546875 L 114 99.546875 L 114 107.097656 L 102 107.097656 Z M 102 99.546875 " clip-rule="nonzero"/></clipPath><clipPath id="c0ebb7c8fc"><path d="M 102.3125 107.09375 C 106.804688 105.789062 110.753906 103.621094 113.691406 99.863281 C 109.097656 100.980469 105.050781 102.976562 102.3125 107.09375 " clip-rule="nonzero"/></clipPath><clipPath id="265b75bb0c"><path d="M 54.511719 105.207031 L 60 105.207031 L 60 112.382812 L 54.511719 112.382812 Z M 54.511719 105.207031 " clip-rule="nonzero"/></clipPath><clipPath id="67a988f523"><path d="M 59.03125 111.136719 C 59.832031 110.304688 59.890625 109.007812 59.175781 108.101562 C 58.378906 107.097656 57.71875 106.261719 56.871094 105.988281 C 55.136719 105.429688 54.753906 107.230469 54.792969 108.625 C 54.839844 110.390625 55.324219 112.222656 57.4375 112.234375 C 57.925781 112.234375 58.421875 111.769531 59.03125 111.132812 " clip-rule="nonzero"/></clipPath><clipPath id="2ae087148b"><path d="M 43.585938 59.902344 L 48.859375 59.902344 L 48.859375 66 L 43.585938 66 Z M 43.585938 59.902344 " clip-rule="nonzero"/></clipPath><clipPath id="b55749f4ed"><path d="M 45.195312 60.242188 C 44.199219 60.945312 43.765625 62.199219 43.992188 63.394531 C 44.265625 64.847656 44.859375 65.820312 46.347656 65.9375 C 46.964844 65.988281 48.148438 64.582031 48.285156 63.726562 C 48.5625 61.992188 47.925781 60.203125 45.902344 59.996094 L 45.433594 60.078125 " clip-rule="nonzero"/></clipPath><clipPath id="dfedde7e15"><path d="M 95 106 L 100.472656 106 L 100.472656 111.625 L 95 111.625 Z M 95 106 " clip-rule="nonzero"/></clipPath><clipPath id="d767f19efb"><path d="M 100.183594 106.75 C 97.246094 106.261719 95.242188 108.109375 95.175781 111.289062 C 97.152344 109.5 98.667969 108.125 100.183594 106.75 " clip-rule="nonzero"/></clipPath><clipPath id="4ba0e286fd"><path d="M 87.664062 108.230469 L 92.9375 108.230469 L 92.9375 113.515625 L 87.664062 113.515625 Z M 87.664062 108.230469 " clip-rule="nonzero"/></clipPath><clipPath id="b8edf3f58f"><path d="M 87.867188 112.945312 C 90.890625 113.402344 92.882812 111.605469 92.925781 108.464844 C 90.941406 110.222656 89.402344 111.585938 87.867188 112.945312 " clip-rule="nonzero"/></clipPath><clipPath id="172ea8feea"><path d="M 77.492188 109 L 82.765625 109 L 82.765625 113.890625 L 77.492188 113.890625 Z M 77.492188 109 " clip-rule="nonzero"/></clipPath><clipPath id="1876389ce4"><path d="M 82.75 109.230469 C 79.953125 108.652344 77.867188 110.5 77.609375 113.765625 C 79.65625 111.960938 81.203125 110.597656 82.75 109.230469 " clip-rule="nonzero"/></clipPath><clipPath id="be9f26c352"><path d="M 115 91.238281 L 120.4375 91.238281 L 120.4375 96.523438 L 115 96.523438 Z M 115 91.238281 " clip-rule="nonzero"/></clipPath><clipPath id="dbd19db464"><path d="M 120.265625 92.738281 L 119.203125 91.515625 L 115.074219 95.253906 C 115.390625 95.613281 115.703125 95.976562 116.011719 96.335938 Z M 120.265625 92.738281 " clip-rule="nonzero"/></clipPath></defs><g fill="#00fffc" fill-opacity="1"><g transform="translate(142.793039, 88.755929)"><g><path d="M 9.59375 -10.757812 L 0.535156 -10.757812 L 0.535156 -9.671875 L 4.417969 -9.671875 L 4.417969 0.015625 L 5.742188 0.015625 L 5.742188 -9.671875 L 9.59375 -9.671875 Z M 9.59375 -10.757812 "/></g></g></g><g fill="#00fffc" fill-opacity="1"><g transform="translate(163.143384, 88.755929)"><g><path d="M 2.441406 -1.082031 L 2.441406 -5 L 8.574219 -5 L 8.574219 -6.066406 L 2.441406 -6.066406 L 2.441406 -9.671875 L 9.058594 -9.671875 L 9.058594 -10.757812 L 1.101562 -10.757812 L 1.101562 0 L 9.109375 0 L 9.109375 -1.082031 Z M 2.441406 -1.082031 "/></g></g></g><g fill="#00fffc" fill-opacity="1"><g transform="translate(183.477561, 88.755929)"><g><path d="M 6.261719 0.273438 C 9.707031 0.273438 11.242188 -1.554688 11.421875 -4.285156 L 10.046875 -4.285156 C 9.898438 -2.101562 8.671875 -0.839844 6.226562 -0.839844 C 3.542969 -0.839844 2.296875 -2.378906 2.296875 -5.386719 C 2.296875 -8.394531 3.574219 -9.933594 6.261719 -9.933594 C 8.589844 -9.933594 9.785156 -8.847656 10.011719 -6.746094 L 11.371094 -6.746094 C 11.113281 -9.414062 9.609375 -11.046875 6.292969 -11.046875 C 2.589844 -11.046875 0.890625 -8.621094 0.890625 -5.386719 C 0.890625 -2.121094 2.554688 0.273438 6.261719 0.273438 Z M 6.261719 0.273438 "/></g></g></g><g fill="#00fffc" fill-opacity="1"><g transform="translate(205.914728, 88.755929)"><g><path d="M 8.703125 -10.757812 L 8.703125 -6.097656 L 2.441406 -6.097656 L 2.441406 -10.757812 L 1.101562 -10.757812 L 1.101562 0 L 2.441406 0 L 2.441406 -5.015625 L 8.703125 -5.015625 L 8.703125 0 L 10.03125 0 L 10.03125 -10.757812 Z M 8.703125 -10.757812 "/></g></g></g><g clip-path="url(#d5dd266096)"><g clip-path="url(#64bbc2ac6f)"><path fill="#00fffc" d="M 35.675781 28.566406 L 132.117188 28.566406 L 132.117188 125.21875 L 35.675781 125.21875 Z M 35.675781 28.566406 " fill-opacity="1" fill-rule="nonzero"/></g></g><g clip-path="url(#7f331543ac)"><g clip-path="url(#f8d73389f3)"><path fill="#00fffc" d="M 35.675781 28.566406 L 132.117188 28.566406 L 132.117188 125.21875 L 35.675781 125.21875 Z M 35.675781 28.566406 " fill-opacity="1" fill-rule="nonzero"/></g></g><g clip-path="url(#53ee615107)"><g clip-path="url(#2248277729)"><path fill="#00fffc" d="M 35.675781 28.566406 L 132.117188 28.566406 L 132.117188 125.21875 L 35.675781 125.21875 Z M 35.675781 28.566406 " fill-opacity="1" fill-rule="nonzero"/></g></g><g clip-path="url(#78ea382370)"><g clip-path="url(#388f848dd9)"><path fill="#00fffc" d="M 35.675781 28.566406 L 132.117188 28.566406 L 132.117188 125.21875 L 35.675781 125.21875 Z M 35.675781 28.566406 " fill-opacity="1" fill-rule="nonzero"/></g></g><g clip-path="url(#10ae999fb6)"><g clip-path="url(#ee3f78aba9)"><path fill="#00fffc" d="M 35.675781 28.566406 L 132.117188 28.566406 L 132.117188 125.21875 L 35.675781 125.21875 Z M 35.675781 28.566406 " fill-opacity="1" fill-rule="nonzero"/></g></g><g clip-path="url(#a6ed850e43)"><g clip-path="url(#dac1cd1fc4)"><path fill="#00fffc" d="M 35.675781 28.566406 L 132.117188 28.566406 L 132.117188 125.21875 L 35.675781 125.21875 Z M 35.675781 28.566406 " fill-opacity="1" fill-rule="nonzero"/></g></g><g clip-path="url(#035bcb0b68)"><g clip-path="url(#aaef53da4d)"><path fill="#00fffc" d="M 35.675781 28.566406 L 132.117188 28.566406 L 132.117188 125.21875 L 35.675781 125.21875 Z M 35.675781 28.566406 " fill-opacity="1" fill-rule="nonzero"/></g></g><g clip-path="url(#3220f20775)"><g clip-path="url(#462d8b6ba6)"><path fill="#ffffff" d="M 35.675781 28.566406 L 132.117188 28.566406 L 132.117188 125.21875 L 35.675781 125.21875 Z M 35.675781 28.566406 " fill-opacity="1" fill-rule="nonzero"/></g></g><g clip-path="url(#96be63dc4f)"><g clip-path="url(#7299462c5a)"><path fill="#ffffff" d="M 35.675781 28.566406 L 132.117188 28.566406 L 132.117188 125.21875 L 35.675781 125.21875 Z M 35.675781 28.566406 " fill-opacity="1" fill-rule="nonzero"/></g></g><g clip-path="url(#9a54c62875)"><g clip-path="url(#aefdd47618)"><path fill="#00fffc" d="M 35.675781 28.566406 L 132.117188 28.566406 L 132.117188 125.21875 L 35.675781 125.21875 Z M 35.675781 28.566406 " fill-opacity="1" fill-rule="nonzero"/></g></g><g clip-path="url(#693b0fa973)"><g clip-path="url(#e5d4a3c25c)"><path fill="#ffffff" d="M 35.675781 28.566406 L 132.117188 28.566406 L 132.117188 125.21875 L 35.675781 125.21875 Z M 35.675781 28.566406 " fill-opacity="1" fill-rule="nonzero"/></g></g><g clip-path="url(#becc52be8f)"><g clip-path="url(#5c1729243c)"><path fill="#ffffff" d="M 35.675781 28.566406 L 132.117188 28.566406 L 132.117188 125.21875 L 35.675781 125.21875 Z M 35.675781 28.566406 " fill-opacity="1" fill-rule="nonzero"/></g></g><g clip-path="url(#2ed2fa25b0)"><g clip-path="url(#30dd89f5b7)"><path fill="#ffffff" d="M 35.675781 28.566406 L 132.117188 28.566406 L 132.117188 125.21875 L 35.675781 125.21875 Z M 35.675781 28.566406 " fill-opacity="1" fill-rule="nonzero"/></g></g><g clip-path="url(#329b2ebd50)"><g clip-path="url(#1fddd16ed8)"><path fill="#ffffff" d="M 35.675781 28.566406 L 132.117188 28.566406 L 132.117188 125.21875 L 35.675781 125.21875 Z M 35.675781 28.566406 " fill-opacity="1" fill-rule="nonzero"/></g></g><g clip-path="url(#33035c49e7)"><g clip-path="url(#6c5321c665)"><path fill="#ffffff" d="M 35.675781 28.566406 L 132.117188 28.566406 L 132.117188 125.21875 L 35.675781 125.21875 Z M 35.675781 28.566406 " fill-opacity="1" fill-rule="nonzero"/></g></g><g clip-path="url(#0a23048aea)"><g clip-path="url(#c0ebb7c8fc)"><path fill="#ffffff" d="M 35.675781 28.566406 L 132.117188 28.566406 L 132.117188 125.21875 L 35.675781 125.21875 Z M 35.675781 28.566406 " fill-opacity="1" fill-rule="nonzero"/></g></g><g clip-path="url(#265b75bb0c)"><g clip-path="url(#67a988f523)"><path fill="#ffffff" d="M 35.675781 28.566406 L 132.117188 28.566406 L 132.117188 125.21875 L 35.675781 125.21875 Z M 35.675781 28.566406 " fill-opacity="1" fill-rule="nonzero"/></g></g><g clip-path="url(#2ae087148b)"><g clip-path="url(#b55749f4ed)"><path fill="#ffffff" d="M 35.675781 28.566406 L 132.117188 28.566406 L 132.117188 125.21875 L 35.675781 125.21875 Z M 35.675781 28.566406 " fill-opacity="1" fill-rule="nonzero"/></g></g><g clip-path="url(#dfedde7e15)"><g clip-path="url(#d767f19efb)"><path fill="#00fffc" d="M 35.675781 28.566406 L 132.117188 28.566406 L 132.117188 125.21875 L 35.675781 125.21875 Z M 35.675781 28.566406 " fill-opacity="1" fill-rule="nonzero"/></g></g><g clip-path="url(#4ba0e286fd)"><g clip-path="url(#b8edf3f58f)"><path fill="#00fffc" d="M 35.675781 28.566406 L 132.117188 28.566406 L 132.117188 125.21875 L 35.675781 125.21875 Z M 35.675781 28.566406 " fill-opacity="1" fill-rule="nonzero"/></g></g><g clip-path="url(#172ea8feea)"><g clip-path="url(#1876389ce4)"><path fill="#00fffc" d="M 35.675781 28.566406 L 132.117188 28.566406 L 132.117188 125.21875 L 35.675781 125.21875 Z M 35.675781 28.566406 " fill-opacity="1" fill-rule="nonzero"/></g></g><g clip-path="url(#be9f26c352)"><g clip-path="url(#dbd19db464)"><path fill="#00fffc" d="M 35.675781 28.566406 L 132.117188 28.566406 L 132.117188 125.21875 L 35.675781 125.21875 Z M 35.675781 28.566406 " fill-opacity="1" fill-rule="nonzero"/></g></g><g fill="#ffffff" fill-opacity="1"><g transform="translate(142.317147, 61.338014)"><g><path d="M 5.722656 0.257812 C 8.03125 0.257812 9.167969 -1 9.609375 -2.472656 L 9.609375 -0.015625 L 10.746094 -0.015625 L 10.746094 -4.980469 L 4.964844 -4.980469 L 4.964844 -4.039062 L 9.519531 -4.039062 C 9.230469 -2.15625 8.257812 -0.789062 5.90625 -0.789062 C 3.292969 -0.789062 2.15625 -2.246094 2.15625 -5.054688 C 2.15625 -7.910156 3.339844 -9.320312 5.90625 -9.320312 C 8.136719 -9.320312 9.199219 -8.425781 9.457031 -6.480469 L 10.761719 -6.480469 C 10.472656 -9 8.957031 -10.367188 5.949219 -10.367188 C 2.460938 -10.367188 0.835938 -8.105469 0.835938 -5.054688 C 0.835938 -1.988281 2.382812 0.257812 5.722656 0.257812 Z M 5.722656 0.257812 "/></g></g></g><g fill="#ffffff" fill-opacity="1"><g transform="translate(163.751782, 61.338014)"><g><path d="M 2.292969 -1.015625 L 2.292969 -4.691406 L 8.046875 -4.691406 L 8.046875 -5.691406 L 2.292969 -5.691406 L 2.292969 -9.078125 L 8.5 -9.078125 L 8.5 -10.09375 L 1.03125 -10.09375 L 1.03125 0 L 8.546875 0 L 8.546875 -1.015625 Z M 2.292969 -1.015625 "/></g></g></g><g fill="#ffffff" fill-opacity="1"><g transform="translate(182.833454, 61.338014)"><g><path d="M 8.378906 -10.09375 L 8.378906 -0.851562 C 8.183594 -1.304688 7.9375 -1.804688 7.742188 -2.15625 L 3.15625 -10.09375 L 1.03125 -10.09375 L 1.03125 0 L 2.292969 0 L 2.292969 -9.246094 C 2.460938 -8.851562 2.671875 -8.410156 2.929688 -7.925781 L 7.515625 0 L 9.625 0 L 9.625 -10.09375 Z M 8.378906 -10.09375 "/></g></g></g><g fill="#ffffff" fill-opacity="1"><g transform="translate(203.084025, 61.338014)"><g><path d="M 2.292969 -1.015625 L 2.292969 -4.691406 L 8.046875 -4.691406 L 8.046875 -5.691406 L 2.292969 -5.691406 L 2.292969 -9.078125 L 8.5 -9.078125 L 8.5 -10.09375 L 1.03125 -10.09375 L 1.03125 0 L 8.546875 0 L 8.546875 -1.015625 Z M 2.292969 -1.015625 "/></g></g></g><g fill="#ffffff" fill-opacity="1"><g transform="translate(222.165695, 61.338014)"><g><path d="M 8.515625 -2.671875 C 8.515625 -4.160156 7.832031 -4.613281 6.875 -4.886719 C 8 -5.144531 8.835938 -6.085938 8.835938 -7.4375 C 8.835938 -9.0625 7.816406 -10.09375 5.738281 -10.09375 L 1.03125 -10.09375 L 1.03125 0 L 2.292969 0 L 2.292969 -4.523438 L 5.132812 -4.523438 C 6.527344 -4.523438 7.300781 -3.933594 7.300781 -2.488281 L 7.300781 -1.5625 C 7.300781 -0.835938 7.378906 -0.332031 7.484375 0 L 8.714844 0 C 8.621094 -0.378906 8.515625 -0.867188 8.515625 -1.609375 Z M 5.585938 -5.464844 L 2.292969 -5.464844 L 2.292969 -9.078125 L 5.601562 -9.078125 C 6.921875 -9.078125 7.515625 -8.5 7.515625 -7.332031 C 7.515625 -6.179688 7 -5.464844 5.585938 -5.464844 Z M 5.585938 -5.464844 "/></g></g></g><g fill="#ffffff" fill-opacity="1"><g transform="translate(241.566149, 61.338014)"><g><path d="M 8.804688 0 L 10.078125 0 L 6.253906 -10.09375 L 4.386719 -10.09375 L 0.5625 0 L 1.820312 0 L 2.808594 -2.582031 L 7.816406 -2.582031 Z M 3.1875 -3.597656 L 5.3125 -9.183594 L 7.4375 -3.597656 Z M 3.1875 -3.597656 "/></g></g></g><g fill="#ffffff" fill-opacity="1"><g transform="translate(261.755988, 61.338014)"><g><path d="M 5.875 0.257812 C 9.109375 0.257812 10.550781 -1.457031 10.71875 -4.023438 L 9.425781 -4.023438 C 9.289062 -1.972656 8.136719 -0.789062 5.84375 -0.789062 C 3.324219 -0.789062 2.15625 -2.230469 2.15625 -5.054688 C 2.15625 -7.878906 3.355469 -9.320312 5.875 -9.320312 C 8.0625 -9.320312 9.183594 -8.304688 9.398438 -6.332031 L 10.671875 -6.332031 C 10.429688 -8.835938 9.015625 -10.367188 5.90625 -10.367188 C 2.429688 -10.367188 0.835938 -8.089844 0.835938 -5.054688 C 0.835938 -1.988281 2.398438 0.257812 5.875 0.257812 Z M 5.875 0.257812 "/></g></g></g><g fill="#ffffff" fill-opacity="1"><g transform="translate(282.81111, 61.338014)"><g><path d="M 6.542969 -9.078125 L 6.542969 -10.09375 L 1.015625 -10.09375 L 1.015625 -9.078125 L 3.15625 -9.078125 L 3.15625 -1.015625 L 1.015625 -1.015625 L 1.015625 0 L 6.542969 0 L 6.542969 -1.015625 L 4.402344 -1.015625 L 4.402344 -9.078125 Z M 6.542969 -9.078125 "/></g></g></g><g fill="#ffffff" fill-opacity="1"><g transform="translate(299.949692, 61.338014)"><g><path d="M 7.636719 -11.933594 L 7.269531 -12.859375 L 4.082031 -11.445312 L 4.296875 -10.976562 Z M 5.859375 0.257812 C 9.367188 0.257812 10.898438 -2.019531 10.898438 -5.054688 C 10.898438 -8.046875 9.367188 -10.367188 5.859375 -10.367188 C 2.351562 -10.367188 0.835938 -8.0625 0.835938 -5.054688 C 0.835938 -2.003906 2.351562 0.257812 5.859375 0.257812 Z M 2.15625 -5.054688 C 2.15625 -7.894531 3.277344 -9.320312 5.859375 -9.320312 C 8.441406 -9.320312 9.578125 -7.894531 9.578125 -5.054688 C 9.578125 -2.214844 8.441406 -0.789062 5.859375 -0.789062 C 3.277344 -0.789062 2.15625 -2.214844 2.15625 -5.054688 Z M 2.15625 -5.054688 "/></g></g></g><g fill="#ffffff" fill-opacity="1"><g transform="translate(321.262872, 61.338014)"><g><path d="M 8.378906 -10.09375 L 8.378906 -0.851562 C 8.183594 -1.304688 7.9375 -1.804688 7.742188 -2.15625 L 3.15625 -10.09375 L 1.03125 -10.09375 L 1.03125 0 L 2.292969 0 L 2.292969 -9.246094 C 2.460938 -8.851562 2.671875 -8.410156 2.929688 -7.925781 L 7.515625 0 L 9.625 0 L 9.625 -10.09375 Z M 8.378906 -10.09375 "/></g></g></g></svg>